<svg aria-hidden="true" style="position: absolute; width: 0; height: 0; overflow: hidden;" version="1.1" xmlns="http://www.w3.org/2000/svg" xmlns:xlink="http://www.w3.org/1999/xlink">
<defs>
<symbol id="icon-offer-banner" viewBox="0 0 583 32">
<path fill="#fd9222" style="fill: var(--color1, #fd9222)" d="M54.154 0h-36.923c-8.837 0-16 7.163-16 16s7.163 16 16 16h36.923c8.837 0 16-7.163 16-16s-7.163-16-16-16z"></path>
<path fill="#111" style="fill: var(--color2, #111)" opacity="0.1" d="M118.154 32c8.837 0 16-7.163 16-16s-7.163-16-16-16-16 7.163-16 16c0 8.837 7.163 16 16 16z"></path>
<path fill="#111" style="fill: var(--color2, #111)" opacity="0.1" d="M182.154 32c8.837 0 16-7.163 16-16s-7.163-16-16-16-16 7.163-16 16c0 8.837 7.163 16 16 16z"></path>
<path fill="#111" style="fill: var(--color2, #111)" opacity="0.1" d="M246.154 32c8.837 0 16-7.163 16-16s-7.163-16-16-16c-8.837 0-16 7.163-16 16s7.163 16 16 16z"></path>
<path fill="#111" style="fill: var(--color2, #111)" opacity="0.1" d="M310.154 32c8.837 0 16-7.163 16-16s-7.163-16-16-16-16 7.163-16 16c0 8.837 7.163 16 16 16z"></path>
<path fill="#111" style="fill: var(--color2, #111)" opacity="0.1" d="M374.154 32c8.837 0 16-7.163 16-16s-7.163-16-16-16-16 7.163-16 16c0 8.837 7.163 16 16 16z"></path>
<path fill="#111" style="fill: var(--color2, #111)" opacity="0.1" d="M438.154 32c8.837 0 16-7.163 16-16s-7.163-16-16-16-16 7.163-16 16c0 8.837 7.163 16 16 16z"></path>
<path fill="#111" style="fill: var(--color2, #111)" opacity="0.1" d="M502.154 32c8.837 0 16-7.163 16-16s-7.163-16-16-16-16 7.163-16 16c0 8.837 7.163 16 16 16z"></path>
<path fill="#111" style="fill: var(--color2, #111)" opacity="0.1" d="M566.154 32c8.837 0 16-7.163 16-16s-7.163-16-16-16-16 7.163-16 16c0 8.837 7.163 16 16 16z"></path>
</symbol>
<symbol id="icon-slider-2-points" viewBox="0 0 199 32">
<path fill="#fd9222" style="fill: var(--color1, #fd9222)" d="M54.154 0h-36.923c-8.837 0-16 7.163-16 16s7.163 16 16 16h36.923c8.837 0 16-7.163 16-16s-7.163-16-16-16z"></path>
<path fill="#111" style="fill: var(--color2, #111)" opacity="0.1" d="M118.154 32c8.837 0 16-7.163 16-16s-7.163-16-16-16-16 7.163-16 16c0 8.837 7.163 16 16 16z"></path>
<path fill="#111" style="fill: var(--color2, #111)" opacity="0.1" d="M182.154 32c8.837 0 16-7.163 16-16s-7.163-16-16-16-16 7.163-16 16c0 8.837 7.163 16 16 16z"></path>
</symbol>
<symbol id="icon-slider-3-points" viewBox="0 0 263 32">
<path fill="#fd9222" style="fill: var(--color1, #fd9222)" d="M52.923 0h-36.923c-8.837 0-16 7.163-16 16s7.163 16 16 16h36.923c8.837 0 16-7.163 16-16s-7.163-16-16-16z"></path>
<path fill="#111" style="fill: var(--color2, #111)" opacity="0.1" d="M116.923 32c8.837 0 16-7.163 16-16s-7.163-16-16-16-16 7.163-16 16c0 8.837 7.163 16 16 16z"></path>
<path fill="#111" style="fill: var(--color2, #111)" opacity="0.1" d="M180.923 32c8.837 0 16-7.163 16-16s-7.163-16-16-16-16 7.163-16 16c0 8.837 7.163 16 16 16z"></path>
<path fill="#111" style="fill: var(--color2, #111)" opacity="0.1" d="M244.923 32c8.837 0 16-7.163 16-16s-7.163-16-16-16c-8.837 0-16 7.163-16 16s7.163 16 16 16z"></path>
</symbol>
<symbol id="icon-scroll-down" viewBox="0 0 32 32">
<path fill="#fd9222" style="fill: var(--color1, #fd9222)" d="M16.947 17.867c-0.124 0.125-0.271 0.224-0.434 0.292s-0.337 0.103-0.513 0.103-0.35-0.035-0.513-0.103c-0.162-0.068-0.31-0.167-0.434-0.292l-6.107-6.12c-0.124-0.125-0.271-0.224-0.434-0.292s-0.337-0.103-0.513-0.103c-0.176 0-0.35 0.035-0.513 0.103s-0.31 0.167-0.434 0.292c-0.248 0.25-0.388 0.588-0.388 0.94s0.139 0.69 0.388 0.94l6.12 6.12c0.75 0.749 1.767 1.17 2.827 1.17s2.077-0.421 2.827-1.17l6.12-6.12c0.246-0.248 0.385-0.584 0.387-0.933 0.001-0.175-0.033-0.349-0.099-0.512s-0.164-0.31-0.288-0.435c-0.124-0.125-0.271-0.224-0.434-0.292s-0.337-0.103-0.513-0.103-0.35 0.035-0.513 0.103c-0.162 0.068-0.31 0.167-0.434 0.292l-6.107 6.12z"></path>
</symbol>
<symbol id="icon-burger-menu" viewBox="0 0 32 32">
<path stroke-linejoin="round" stroke-linecap="round" stroke-miterlimit="4" stroke-width="2.5" d="M4 16h24M4 8h24M4 24h24"></path>
</symbol>
<symbol id="icon-x" viewBox="0 0 32 32">
<path stroke-linejoin="round" stroke-linecap="round" stroke-miterlimit="4" stroke-width="2.9091" d="M24 8l-16 16"></path>
<path stroke-linejoin="round" stroke-linecap="round" stroke-miterlimit="4" stroke-width="2.9091" d="M8 8l16 16"></path>
</symbol>
<symbol id="icon-logo-chocolate" viewBox="0 0 32 32">
<path fill="#fcf1e0" style="fill: var(--color4, #fcf1e0)" d="M3.944 20.076l10.777-17.424 0.64-0.674 8.236 5.491 0.056 3.314 2.010 3.28-8.88 14.077-12.839-8.063z"></path>
<path fill="none" stroke="#fd9222" style="stroke: var(--color1, #fd9222)" stroke-linejoin="round" stroke-linecap="round" stroke-miterlimit="4" stroke-width="2.6667" d="M21.635 23.88l-14.185-8.864M11.361 8.599l14.185 8.864M10.63 25.864l11.736-19.25M27.176 14.789c-3.040-1.899-4.234-3.384-2.278-6.592l-9.626-6.015-11.736 19.25 14.186 8.864 9.454-15.507z"></path>
</symbol>
<symbol id="icon-chocolate" viewBox="0 0 32 32">
<path fill="#000" style="fill: var(--color5, #000)" d="M13.511 0.472l8.602 8.613 0.091-0.091c0.18-0.176 0.422-0.276 0.674-0.279s0.496 0.092 0.68 0.264l0.998 0.998c0.349 0.349 0.36 0.88 0.095 1.25l-0.005 0.008-0.163 0.219 7.040 7.040c0.629 0.629 0.629 1.634 0 2.263l-10.777 10.777c-0.629 0.629-1.634 0.629-2.263 0l-5.082-5.082c-0.084 0.106-0.19 0.194-0.311 0.256s-0.253 0.099-0.389 0.106c-0.136 0.008-0.271-0.014-0.398-0.062s-0.242-0.123-0.338-0.22l-2.971-2.971c-0.176-0.18-0.276-0.421-0.279-0.674s0.092-0.496 0.264-0.68l0.007-0.008 0.088-0.087-8.602-8.602c-0.629-0.629-0.629-1.634 0-2.263l10.777-10.777c0.629-0.629 1.634-0.629 2.263 0v0.001zM21.033 10.163l-2.007-2.006c-0.063-0.065-0.139-0.117-0.222-0.152s-0.173-0.053-0.264-0.053c-0.091 0-0.18 0.018-0.264 0.053s-0.159 0.087-0.222 0.152l-4.091 4.091c-0.065 0.064-0.116 0.141-0.151 0.225s-0.053 0.175-0.053 0.266 0.018 0.182 0.053 0.266c0.035 0.084 0.086 0.161 0.151 0.225l1.999 1.999 0.697-0.697-1.789-1.789 3.669-3.68 1.793 1.799 0.701-0.701zM15.232 15.96l-2.005-2.005c-0.063-0.065-0.139-0.117-0.222-0.152s-0.173-0.053-0.264-0.053c-0.091 0-0.18 0.018-0.264 0.053s-0.159 0.087-0.222 0.152l-4.103 4.103c-0.274 0.263-0.274 0.697 0 0.971l2.002 2.002 0.704-0.704-1.794-1.787 3.68-3.669 1.787 1.786 0.699-0.698zM7.797 7.078l4.091 4.091c0.274 0.274 0.709 0.274 0.971-0.011l4.091-4.091c0.065-0.062 0.117-0.136 0.152-0.219s0.054-0.171 0.054-0.261h0.011c0-0.171-0.069-0.354-0.206-0.491l-4.091-4.091c-0.064-0.065-0.141-0.117-0.225-0.152s-0.175-0.053-0.266-0.053c-0.091 0-0.182 0.018-0.266 0.053s-0.161 0.087-0.225 0.152l-4.091 4.103c-0.274 0.263-0.274 0.697 0 0.971zM2.002 12.872l4.091 4.091c0.274 0.274 0.709 0.274 0.971 0l4.091-4.091c0.066-0.063 0.119-0.14 0.154-0.224s0.053-0.176 0.051-0.267h0.011c0-0.183-0.069-0.354-0.206-0.491l-4.091-4.091c-0.063-0.065-0.139-0.117-0.222-0.152s-0.173-0.053-0.264-0.053c-0.091 0-0.18 0.018-0.264 0.053s-0.159 0.087-0.222 0.152l-4.103 4.103c-0.274 0.263-0.274 0.697 0 0.971zM9.926 22.877l2.699 2.701 11.013-14.903-0.749-0.749-12.963 12.951z"></path>
<path fill="#fd9222" style="fill: var(--color1, #fd9222)" d="M13.511 0.472l8.602 8.613 0.091-0.091c0.18-0.176 0.422-0.276 0.674-0.279s0.496 0.092 0.68 0.264l0.998 0.998c0.349 0.349 0.36 0.88 0.095 1.25l-0.005 0.008-0.163 0.219 7.040 7.040c0.629 0.629 0.629 1.634 0 2.263l-10.777 10.777c-0.629 0.629-1.634 0.629-2.263 0l-5.082-5.082c-0.084 0.106-0.19 0.194-0.311 0.256s-0.253 0.099-0.389 0.106c-0.136 0.008-0.271-0.014-0.398-0.062s-0.242-0.123-0.338-0.22l-2.971-2.971c-0.176-0.18-0.276-0.421-0.279-0.674s0.092-0.496 0.264-0.68l0.007-0.008 0.088-0.087-8.602-8.602c-0.629-0.629-0.629-1.634 0-2.263l10.777-10.777c0.629-0.629 1.634-0.629 2.263 0v0.001zM21.033 10.163l-2.007-2.006c-0.063-0.065-0.139-0.117-0.222-0.152s-0.173-0.053-0.264-0.053c-0.091 0-0.18 0.018-0.264 0.053s-0.159 0.087-0.222 0.152l-4.091 4.091c-0.065 0.064-0.116 0.141-0.151 0.225s-0.053 0.175-0.053 0.266 0.018 0.182 0.053 0.266c0.035 0.084 0.086 0.161 0.151 0.225l1.999 1.999 0.697-0.697-1.789-1.789 3.669-3.68 1.793 1.799 0.701-0.701zM15.232 15.96l-2.005-2.005c-0.063-0.065-0.139-0.117-0.222-0.152s-0.173-0.053-0.264-0.053c-0.091 0-0.18 0.018-0.264 0.053s-0.159 0.087-0.222 0.152l-4.103 4.103c-0.274 0.263-0.274 0.697 0 0.971l2.002 2.002 0.704-0.704-1.794-1.787 3.68-3.669 1.787 1.786 0.699-0.698zM7.797 7.078l4.091 4.091c0.274 0.274 0.709 0.274 0.971-0.011l4.091-4.091c0.065-0.062 0.117-0.136 0.152-0.219s0.054-0.171 0.054-0.261h0.011c0-0.171-0.069-0.354-0.206-0.491l-4.091-4.091c-0.064-0.065-0.141-0.117-0.225-0.152s-0.175-0.053-0.266-0.053c-0.091 0-0.182 0.018-0.266 0.053s-0.161 0.087-0.225 0.152l-4.091 4.103c-0.274 0.263-0.274 0.697 0 0.971zM2.002 12.872l4.091 4.091c0.274 0.274 0.709 0.274 0.971 0l4.091-4.091c0.066-0.063 0.119-0.14 0.154-0.224s0.053-0.176 0.051-0.267h0.011c0-0.183-0.069-0.354-0.206-0.491l-4.091-4.091c-0.063-0.065-0.139-0.117-0.222-0.152s-0.173-0.053-0.264-0.053c-0.091 0-0.18 0.018-0.264 0.053s-0.159 0.087-0.222 0.152l-4.103 4.103c-0.274 0.263-0.274 0.697 0 0.971zM9.926 22.877l2.699 2.701 11.013-14.903-0.749-0.749-12.963 12.951z"></path>
</symbol>
<symbol id="icon-dolar" viewBox="0 0 32 32">
<path fill="#fd9222" style="fill: var(--color1, #fd9222)" d="M16 0.762c-8.381 0-15.238 6.857-15.238 15.238s6.857 15.238 15.238 15.238c8.381 0 15.238-6.857 15.238-15.238s-6.857-15.238-15.238-15.238zM16 28.191c-6.705 0-12.19-5.486-12.19-12.19s5.486-12.191 12.19-12.191c6.705 0 12.19 5.486 12.19 12.191s-5.486 12.19-12.191 12.19z"></path>
<path fill="#fd9222" style="fill: var(--color1, #fd9222)" d="M17.981 14.476h-3.962c-0.762 0-1.371-0.61-1.371-1.371s0.61-1.371 1.371-1.371h5.638c0.914 0 1.524-0.61 1.524-1.524s-0.61-1.524-1.524-1.524h-2.133v-1.371c0-0.914-0.61-1.524-1.524-1.524s-1.524 0.61-1.524 1.524v1.371h-0.457c-2.438 0-4.419 1.981-4.419 4.419s1.981 4.419 4.419 4.419h3.809c0.762 0 1.371 0.61 1.371 1.371s-0.61 1.371-1.371 1.371h-5.638c-0.914 0-1.524 0.61-1.524 1.524s0.61 1.524 1.524 1.524h2.286v1.371c0 0.914 0.61 1.524 1.524 1.524s1.524-0.61 1.524-1.524v-1.371h0.457c2.438 0 4.419-1.981 4.419-4.419s-1.981-4.419-4.419-4.419z"></path>
</symbol>
<symbol id="icon-spoon" viewBox="0 0 32 32">
<path fill="#fd9222" style="fill: var(--color1, #fd9222)" d="M15.373 13.835c-0.894-1.086-1.345-2.418-1.345-3.751 0-4.941 5.921-9.877 11.842-9.877 3.269 0 5.921 2.653 5.921 5.922 0 5.922-4.934 11.845-9.881 11.845-1.332 0-2.665-0.45-3.75-1.345l-14.581 14.584c-0.771 0.771-2.023 0.771-2.794 0s-0.771-2.024 0-2.795l14.587-14.584z"></path>
</symbol>
<symbol id="icon-twitter" viewBox="0 0 32 32">
<path stroke-linejoin="round" stroke-linecap="round" stroke-miterlimit="4" stroke-width="2.6667" d="M30.667 4c-1.277 0.901-2.691 1.589-4.187 2.040-0.803-0.923-1.87-1.578-3.057-1.875s-2.437-0.222-3.58 0.214c-1.143 0.436-2.125 1.213-2.812 2.226s-1.047 2.212-1.031 3.435v1.333c-2.343 0.061-4.665-0.459-6.759-1.513s-4.561-3.563-5.908-5.481c0 0-4.667 12.954 7.333 18.287-2.746 1.864-6.017 2.799-9.333 2.667 12 6.667 26.667 0 26.667-15.333-0.001-0.371-0.037-0.742-0.107-1.107 1.361-1.342 2.321-3.036 2.773-4.893z"></path>
</symbol>
<symbol id="icon-ukraine" viewBox="0 0 31 32">
<path fill="#ffd700" style="fill: var(--color1, #ffd700)" d="M30.559 5.496h-30.326v22.568h30.326v-22.568z"></path>
<path fill="#0057b7" style="fill: var(--color2, #0057b7)" d="M0.233 5.496h30.326v11.284h-30.326v-11.284z"></path>
</symbol>
<symbol id="icon-instagram" viewBox="0 0 32 32">
<path d="M16 2.881c4.275 0 4.781 0.019 6.462 0.094 1.563 0.069 2.406 0.331 2.969 0.55 0.744 0.288 1.281 0.638 1.837 1.194 0.563 0.563 0.906 1.094 1.2 1.838 0.219 0.563 0.481 1.412 0.55 2.969 0.075 1.688 0.094 2.194 0.094 6.463s-0.019 4.781-0.094 6.463c-0.069 1.563-0.331 2.406-0.55 2.969-0.288 0.744-0.637 1.281-1.194 1.837-0.563 0.563-1.094 0.906-1.837 1.2-0.563 0.219-1.413 0.481-2.969 0.55-1.688 0.075-2.194 0.094-6.463 0.094s-4.781-0.019-6.463-0.094c-1.563-0.069-2.406-0.331-2.969-0.55-0.744-0.288-1.281-0.637-1.838-1.194-0.563-0.563-0.906-1.094-1.2-1.837-0.219-0.563-0.481-1.413-0.55-2.969-0.075-1.688-0.094-2.194-0.094-6.463s0.019-4.781 0.094-6.463c0.069-1.563 0.331-2.406 0.55-2.969 0.288-0.744 0.638-1.281 1.194-1.838 0.563-0.563 1.094-0.906 1.838-1.2 0.563-0.219 1.412-0.481 2.969-0.55 1.681-0.075 2.188-0.094 6.463-0.094zM16 0c-4.344 0-4.887 0.019-6.594 0.094-1.7 0.075-2.869 0.35-3.881 0.744-1.056 0.412-1.95 0.956-2.837 1.85-0.894 0.888-1.438 1.781-1.85 2.831-0.394 1.019-0.669 2.181-0.744 3.881-0.075 1.713-0.094 2.256-0.094 6.6s0.019 4.887 0.094 6.594c0.075 1.7 0.35 2.869 0.744 3.881 0.413 1.056 0.956 1.95 1.85 2.837 0.887 0.887 1.781 1.438 2.831 1.844 1.019 0.394 2.181 0.669 3.881 0.744 1.706 0.075 2.25 0.094 6.594 0.094s4.888-0.019 6.594-0.094c1.7-0.075 2.869-0.35 3.881-0.744 1.050-0.406 1.944-0.956 2.831-1.844s1.438-1.781 1.844-2.831c0.394-1.019 0.669-2.181 0.744-3.881 0.075-1.706 0.094-2.25 0.094-6.594s-0.019-4.887-0.094-6.594c-0.075-1.7-0.35-2.869-0.744-3.881-0.394-1.063-0.938-1.956-1.831-2.844-0.887-0.887-1.781-1.438-2.831-1.844-1.019-0.394-2.181-0.669-3.881-0.744-1.712-0.081-2.256-0.1-6.6-0.1v0z"></path>
<path d="M16 7.781c-4.537 0-8.219 3.681-8.219 8.219s3.681 8.219 8.219 8.219 8.219-3.681 8.219-8.219c0-4.537-3.681-8.219-8.219-8.219zM16 21.331c-2.944 0-5.331-2.387-5.331-5.331s2.387-5.331 5.331-5.331c2.944 0 5.331 2.387 5.331 5.331s-2.387 5.331-5.331 5.331z"></path>
<path d="M26.462 7.456c0 1.060-0.859 1.919-1.919 1.919s-1.919-0.859-1.919-1.919c0-1.060 0.859-1.919 1.919-1.919s1.919 0.859 1.919 1.919z"></path>
</symbol>
<symbol id="icon-instagram-two" viewBox="0 0 32 32">
<path d="M16 2.881c4.275 0 4.781 0.019 6.462 0.094 1.563 0.069 2.406 0.331 2.969 0.55 0.744 0.288 1.281 0.638 1.837 1.194 0.563 0.563 0.906 1.094 1.2 1.838 0.219 0.563 0.481 1.412 0.55 2.969 0.075 1.688 0.094 2.194 0.094 6.463s-0.019 4.781-0.094 6.463c-0.069 1.563-0.331 2.406-0.55 2.969-0.288 0.744-0.637 1.281-1.194 1.837-0.563 0.563-1.094 0.906-1.837 1.2-0.563 0.219-1.413 0.481-2.969 0.55-1.688 0.075-2.194 0.094-6.463 0.094s-4.781-0.019-6.463-0.094c-1.563-0.069-2.406-0.331-2.969-0.55-0.744-0.288-1.281-0.637-1.838-1.194-0.563-0.563-0.906-1.094-1.2-1.837-0.219-0.563-0.481-1.413-0.55-2.969-0.075-1.688-0.094-2.194-0.094-6.463s0.019-4.781 0.094-6.463c0.069-1.563 0.331-2.406 0.55-2.969 0.288-0.744 0.638-1.281 1.194-1.838 0.563-0.563 1.094-0.906 1.838-1.2 0.563-0.219 1.412-0.481 2.969-0.55 1.681-0.075 2.188-0.094 6.463-0.094zM16 0c-4.344 0-4.887 0.019-6.594 0.094-1.7 0.075-2.869 0.35-3.881 0.744-1.056 0.412-1.95 0.956-2.837 1.85-0.894 0.888-1.438 1.781-1.85 2.831-0.394 1.019-0.669 2.181-0.744 3.881-0.075 1.713-0.094 2.256-0.094 6.6s0.019 4.887 0.094 6.594c0.075 1.7 0.35 2.869 0.744 3.881 0.413 1.056 0.956 1.95 1.85 2.837 0.887 0.887 1.781 1.438 2.831 1.844 1.019 0.394 2.181 0.669 3.881 0.744 1.706 0.075 2.25 0.094 6.594 0.094s4.888-0.019 6.594-0.094c1.7-0.075 2.869-0.35 3.881-0.744 1.050-0.406 1.944-0.956 2.831-1.844s1.438-1.781 1.844-2.831c0.394-1.019 0.669-2.181 0.744-3.881 0.075-1.706 0.094-2.25 0.094-6.594s-0.019-4.887-0.094-6.594c-0.075-1.7-0.35-2.869-0.744-3.881-0.394-1.063-0.938-1.956-1.831-2.844-0.887-0.887-1.781-1.438-2.831-1.844-1.019-0.394-2.181-0.669-3.881-0.744-1.712-0.081-2.256-0.1-6.6-0.1v0z"></path>
<path d="M16 7.781c-4.537 0-8.219 3.681-8.219 8.219s3.681 8.219 8.219 8.219 8.219-3.681 8.219-8.219c0-4.537-3.681-8.219-8.219-8.219zM16 21.331c-2.944 0-5.331-2.387-5.331-5.331s2.387-5.331 5.331-5.331c2.944 0 5.331 2.387 5.331 5.331s-2.387 5.331-5.331 5.331z"></path>
<path d="M26.462 7.456c0 1.060-0.859 1.919-1.919 1.919s-1.919-0.859-1.919-1.919c0-1.060 0.859-1.919 1.919-1.919s1.919 0.859 1.919 1.919z"></path>
</symbol>
</defs>
</svg>